<svg width="40" height="40" viewBox="0 0 40 40" fill="none" xmlns="http://www.w3.org/2000/svg">
<path fill-rule="evenodd" clip-rule="evenodd" d="M0 0H40V40H0V0Z" fill="white"/>
<path fill-rule="evenodd" clip-rule="evenodd" d="M1.76046 36.8754H1.64612C1.64612 36.8183 1.61748 36.7324 1.61748 36.7036C1.61748 36.6751 1.61748 36.6181 1.53157 36.6181H1.35975V36.8754H1.27383V36.2744H1.53157C1.64612 36.2744 1.73182 36.3033 1.73182 36.4174C1.73182 36.5033 1.70318 36.5322 1.67475 36.5604C1.70339 36.5892 1.73182 36.6179 1.73182 36.6751V36.7895C1.73182 36.8183 1.73182 36.8183 1.76046 36.8183V36.8754ZM1.64612 36.4462C1.64612 36.3603 1.58884 36.3603 1.56021 36.3603H1.35975V36.5322H1.53157C1.58884 36.5322 1.64612 36.5033 1.64612 36.4462V36.4462ZM2.13274 36.5606C2.13274 36.2174 1.84658 35.9308 1.47429 35.9308C1.13085 35.9308 0.844482 36.2174 0.844482 36.5606C0.844482 36.9327 1.13085 37.2192 1.47429 37.2192C1.84637 37.219 2.13274 36.9327 2.13274 36.5606ZM2.04683 36.5606C2.04683 36.8756 1.7893 37.1045 1.47429 37.1045C1.15928 37.1045 0.930394 36.8754 0.930394 36.5606C0.930394 36.2744 1.15949 36.0167 1.47429 36.0167C1.7891 36.0167 2.04683 36.2744 2.04683 36.5606ZM37.315 24.9955C37.315 25.8544 36.7711 26.2547 35.7977 26.2547H33.9373V25.3958H35.7977C35.9695 25.3958 36.1127 25.3674 36.1702 25.3103C36.2272 25.2528 36.2845 25.1669 36.2845 25.0526C36.2845 24.9378 36.2274 24.8235 36.1702 24.7664C36.1127 24.7089 35.9984 24.6805 35.8265 24.6805C34.9394 24.6516 33.8228 24.7089 33.8228 23.4495C33.8228 22.8768 34.1948 22.2469 35.1967 22.2469H37.1146V23.1059H35.3397C35.1683 23.1059 35.0535 23.1059 34.9676 23.1629C34.8817 23.2488 34.8246 23.3347 34.8246 23.4779C34.8246 23.6211 34.9106 23.707 35.0249 23.7645C35.1396 23.7929 35.2542 23.8216 35.3974 23.8216H35.9124C36.4563 23.8216 36.8 23.9359 37.0291 24.1366C37.2005 24.3368 37.315 24.5948 37.315 24.9955V24.9955ZM33.2786 24.1366C33.0495 23.9359 32.7059 23.8216 32.162 23.8216H31.6469C31.504 23.8216 31.3892 23.7927 31.2749 23.7645C31.1601 23.707 31.0746 23.6211 31.0746 23.4779C31.0746 23.3347 31.103 23.2488 31.2176 23.1629C31.3035 23.1059 31.4178 23.1059 31.5897 23.1059H33.3646V22.2469H31.4467C30.416 22.2469 30.0723 22.8768 30.0723 23.4495C30.0723 24.7087 31.189 24.6516 32.0765 24.6805C32.2479 24.6805 32.3627 24.7089 32.4197 24.7664C32.4768 24.8235 32.5345 24.9378 32.5345 25.0526C32.5345 25.1669 32.477 25.2528 32.4197 25.3103C32.3338 25.3674 32.2195 25.3958 32.0477 25.3958H30.1869V26.2547H32.0477C33.0207 26.2547 33.5648 25.8542 33.5648 24.9955C33.5648 24.5948 33.4505 24.3368 33.2786 24.1366V24.1366ZM29.6143 25.4248H27.3532V24.6232H29.5573V23.822H27.3532V23.0774H29.6143V22.2474H26.4084V26.2549H29.6143V25.4248ZM25.3777 22.4478C25.0627 22.276 24.6906 22.2472 24.204 22.2472H21.9999V26.2547H22.973V24.7948H24.0037C24.3469 24.7948 24.5476 24.8237 24.6908 24.9667C24.8626 25.1669 24.8626 25.5106 24.8626 25.7683V26.2547H25.807V25.4817C25.807 25.1096 25.7786 24.9378 25.664 24.7376C25.5781 24.6228 25.4067 24.4798 25.1776 24.3939C25.4349 24.3084 25.8647 23.9648 25.8647 23.3347C25.8645 22.877 25.6927 22.6192 25.3777 22.4478V22.4478ZM19.9387 22.2472H16.8755L15.6445 23.5641L14.4708 22.2472H10.6063V26.2547H14.4138L15.6447 24.9378L16.8185 26.2547H18.6793V24.9096H19.8816C20.7117 24.9096 21.5422 24.6805 21.5422 23.5641C21.5419 22.4763 20.683 22.2472 19.9387 22.2472ZM24.6047 23.9077C24.4617 23.9648 24.3185 23.9648 24.1467 23.9648L22.973 23.9936V23.0772H24.1467C24.3185 23.0772 24.4903 23.0772 24.6047 23.1631C24.7194 23.2206 24.8049 23.335 24.8049 23.5068C24.8049 23.6786 24.7194 23.8218 24.6047 23.9077V23.9077ZM19.9387 24.108H18.679V23.0772H19.9387C20.2823 23.0772 20.5112 23.2206 20.5112 23.5641C20.5112 23.9077 20.2821 24.108 19.9387 24.108ZM16.2457 24.2509L17.7342 22.6767V25.9115L16.2457 24.2509ZM13.9269 25.4248H11.5509V24.6232H13.6692V23.822H11.5509V23.0774H13.9556L15.0147 24.2511L13.9269 25.4248V25.4248ZM34.6526 19.3558H33.2786L31.4751 16.35V19.3558H29.5288L29.1563 18.4683H27.1526L26.7805 19.3558H25.6638C25.2058 19.3558 24.6047 19.2413 24.2614 18.8976C23.9464 18.5542 23.7746 18.0962 23.7746 17.3805C23.7746 16.7793 23.8605 16.2354 24.2897 15.8061C24.5758 15.491 25.0913 15.3481 25.7495 15.3481H26.6655V16.207H25.7495C25.4063 16.207 25.2056 16.2643 25.0054 16.4361C24.8336 16.6079 24.7477 16.9227 24.7477 17.3521C24.7477 17.7814 24.8336 18.0964 25.0054 18.2969C25.1484 18.4399 25.4063 18.4971 25.6636 18.4971H26.0932L27.4672 15.3483H28.8986L30.5017 19.1269V15.3481H31.9904L33.6794 18.1248V15.3481H34.6524V19.3558H34.6526V19.3558ZM23.288 15.3481H22.3149V19.3558H23.288V15.3481V15.3481ZM21.2554 15.5199C20.9404 15.3481 20.5971 15.3481 20.1105 15.3481H17.9061V19.3558H18.8507V17.8957H19.8812C20.2248 17.8957 20.4539 17.9244 20.5969 18.0676C20.7687 18.268 20.7399 18.6117 20.7399 18.8406V19.3558H21.7129V18.5542C21.7129 18.2108 21.6845 18.0389 21.5415 17.8385C21.4556 17.7239 21.2838 17.5807 21.0835 17.495C21.3409 17.3805 21.7706 17.0657 21.7706 16.4359C21.7708 15.9779 21.5702 15.7201 21.2554 15.5199ZM17.219 18.5258H14.9861V17.7241H17.1903V16.8941H14.9861V16.1783H17.219V15.3483H14.0128V19.356H17.219V18.5258ZM13.2971 15.3481H11.7227L10.549 18.0676L9.28936 15.3481H7.74357V19.1267L6.11187 15.3481H4.68063L2.96302 19.3558H3.99354L4.36562 18.4683H6.36939L6.74147 19.3558H8.68818V16.207L10.0908 19.3558H10.9208L12.3237 16.207V19.3558H13.2969V15.3481H13.2971ZM28.8131 17.6096L28.1544 16.0352L27.4962 17.6096H28.8131ZM20.5112 16.98C20.3682 17.0659 20.225 17.0659 20.0246 17.0659H18.8507V16.1785H20.0244C20.1962 16.1785 20.3962 16.1785 20.511 16.2358C20.6253 16.3217 20.6828 16.4363 20.6828 16.6079C20.6828 16.7795 20.6256 16.9225 20.5112 16.98V16.98ZM4.70906 17.6096L5.36751 16.0352L6.02595 17.6096H4.70906V17.6096ZM37.0862 2.78088H2.93417V17.2089L4.10788 14.5466H6.59828L6.94193 15.2051V14.5466H9.86189L10.5203 15.9779L11.1502 14.5466H20.4539C20.8831 14.5466 21.2552 14.6326 21.5417 14.8614V14.5466H24.0894V14.8614C24.5186 14.6323 25.0625 14.5466 25.6925 14.5466H29.3852L29.7289 15.2051V14.5466H32.4484L32.8493 15.2051V14.5466H35.5113V20.1575H32.8207L32.3056 19.2988V20.1575H28.9561L28.584 19.2415H27.7535L27.3815 20.1575H25.6354C24.9483 20.1575 24.4329 19.9856 24.0896 19.814V20.1575H19.9387V18.8692C19.9387 18.6974 19.91 18.6687 19.7955 18.6687H19.6525V20.1573H11.6368V19.4415L11.3506 20.1573H9.66164L9.37547 19.4702V20.1573H6.1405L5.79706 19.2413H4.96679L4.59472 20.1573H2.93417V37.0758H37.0862V26.7986C36.7141 26.9704 36.1986 27.0563 35.6833 27.0563H33.1927V26.7127C32.9066 26.942 32.3911 27.0563 31.9047 27.0563H24.0608V25.7683C24.0608 25.5965 24.0323 25.5965 23.889 25.5965H23.746V27.0563H21.1695V25.5392C20.7403 25.7394 20.2535 25.7394 19.8241 25.7394H19.5378V27.0563H16.3889L15.6447 26.1974L14.8147 27.0563H9.74734V21.4457H14.9002L15.6445 22.3042L16.4462 21.4457H19.91C20.3105 21.4457 20.9692 21.5028 21.2554 21.789V21.4457H24.3469C24.6619 21.4457 25.2633 21.5028 25.6638 21.789V21.4457H30.33V21.7892C30.5878 21.5601 31.0746 21.4459 31.5038 21.4459H34.1087V21.7892C34.3953 21.5889 34.7958 21.4459 35.3113 21.4459H37.0862V2.78088V2.78088Z" fill="#CACACA"/>
</svg>
