<svg width="68" height="26" viewBox="0 0 68 26" fill="none" xmlns="http://www.w3.org/2000/svg">
<path d="M10.6773 5.74195C11.4419 5.48727 12.2574 5.35145 13.1036 5.35145C16.8075 5.35145 19.8998 7.97964 20.6066 11.4737L25.8567 10.4041C24.6537 4.4686 19.4003 0 13.1036 0C11.6594 0 10.2764 0.234296 8.97827 0.668931L10.6773 5.74195Z" fill="#CACACA"/>
<path d="M4.48261 22.7402L8.03367 18.7301C6.45011 17.3277 5.45109 15.2802 5.45109 12.9983C5.45109 10.7199 6.45011 8.67236 8.03367 7.27335L4.48261 3.25977C1.79134 5.64349 0.0922852 9.12398 0.0922852 12.9983C0.0922852 16.8761 1.79134 20.3566 4.48261 22.7402Z" fill="#CACACA"/>
<path d="M20.6066 14.5331C19.8964 18.0237 16.8075 20.6485 13.107 20.6485C12.2574 20.6485 11.4385 20.5127 10.6773 20.2547L8.97827 25.3344C10.2764 25.7657 11.6628 26 13.107 26C19.3969 26 24.6469 21.5382 25.8567 15.6095L20.6066 14.5331Z" fill="#CACACA"/>
<path d="M30.4474 18.8964C30.2741 18.6179 30.0431 18.1731 29.9003 17.8438C29.0678 15.9151 29.0304 13.9184 29.7304 12.0033C30.5018 9.9015 31.9766 8.29538 33.8829 7.47364C36.2786 6.44475 38.9257 6.64509 41.2228 8.00674C42.6806 8.84206 43.7136 10.1324 44.4983 11.9592C44.5971 12.1935 44.6854 12.4414 44.7738 12.6553L30.4474 18.8964ZM35.2319 10.5738C33.5295 11.3039 32.6528 12.8998 32.8363 14.7674L40.0403 11.6672C38.8 10.2139 37.1893 9.73171 35.2319 10.5738ZM40.9374 17.3174C40.934 17.3174 40.934 17.3208 40.934 17.3208L40.7845 17.219C40.3529 17.915 39.6835 18.4821 38.8373 18.8489C37.2266 19.5484 35.7349 19.3684 34.6611 18.4278L34.5625 18.5772C34.5625 18.5772 34.5625 18.5738 34.5591 18.5738L32.7309 21.3073C33.1863 21.6231 33.6722 21.8879 34.1819 22.1018C36.2004 22.9405 38.2665 22.8998 40.3019 22.0169C41.7733 21.3785 42.9287 20.4074 43.717 19.1748L40.9374 17.3174ZM49.779 3.45325V18.6451L52.1442 19.6027L50.8022 22.7334L48.1922 21.6468C47.6078 21.3922 47.207 21.0051 46.9079 20.567C46.6192 20.1222 46.405 19.5076 46.405 18.6858V3.45325H49.779ZM55.9027 14.7775C55.9027 13.4838 56.4767 12.3225 57.3809 11.5348L54.9545 8.83189C53.31 10.2852 52.2735 12.4074 52.2735 14.7707C52.27 17.1375 53.3065 19.2631 54.9476 20.7164L57.3706 18.0136C56.4703 17.2224 55.9027 16.0679 55.9027 14.7775ZM60.2115 19.0865C59.7357 19.0865 59.2738 19.005 58.8453 18.8624L57.6864 22.3022C58.4786 22.567 59.3246 22.7131 60.2081 22.7131C64.048 22.7164 67.2523 19.9932 67.9966 16.3768L64.4355 15.6502C64.0308 17.6162 62.2944 19.0899 60.2115 19.0865ZM60.2214 6.84207C59.3414 6.84207 58.4954 6.98467 57.7037 7.24611L58.8522 10.6893C59.2836 10.5466 59.7426 10.4686 60.2184 10.4686C62.3047 10.472 64.0446 11.9524 64.4389 13.9218L68 13.202C67.2695 9.5789 64.0648 6.84543 60.2214 6.84207Z" fill="#CACACA"/>
</svg>
