<svg width="61" height="27" viewBox="0 0 61 27" fill="none" xmlns="http://www.w3.org/2000/svg">
<g clip-path="url(#clip0_1902_322)">
<path d="M16.7485 0H10.4277C7.63478 0.134304 5.35184 1.27838 4.69266 3.63764C4.34895 4.86805 4.15979 6.21936 3.89102 7.49482C2.52465 13.9801 1.31309 20.6441 0.00610352 27H49.2156C53.0199 27 55.6322 26.1824 56.338 23.1113C56.6659 21.6847 56.98 20.0691 57.2938 18.5017C58.5169 12.3907 59.741 6.28012 60.9939 0H16.7485Z" fill="white"/>
<path d="M16.2551 9.59576C16.5194 9.41056 16.8599 8.56712 16.4709 8.21595C16.3477 8.10479 16.1417 8.07252 15.8543 8.12195C15.5876 8.16774 15.4343 8.25991 15.3301 8.4042C15.1628 8.63616 15.0092 9.33592 15.2685 9.59588C15.5211 9.8489 16.0869 9.71351 16.2551 9.59576ZM12.4935 8.21595C12.3041 9.46584 12.0907 10.6914 11.8768 11.9163C10.5033 11.931 9.10085 11.9852 7.77603 11.8849C8.02624 10.6865 8.20571 9.41604 8.45436 8.21595H6.97438C6.44462 11.2729 5.96263 14.3787 5.37109 17.3728H6.88196C7.11889 15.837 7.34061 14.2854 7.65272 12.8257C8.94091 12.7935 10.4848 12.7372 11.7227 12.8572C11.4675 14.3747 11.1591 15.8378 10.9211 17.3728H12.4319C12.9175 14.2707 13.4289 11.1951 14.0354 8.21595H12.4935ZM33.8608 10.8502C32.6852 10.3672 31.761 11.1833 31.3325 11.9477C31.4297 11.6076 31.4697 11.2094 31.5485 10.8502H30.3768C30.0903 13.1094 29.6682 15.2305 29.2669 17.3728H30.5928C30.7786 16.1013 30.8588 14.3871 31.271 13.1707C31.6004 12.1987 32.4627 11.3706 33.7068 11.8223C33.724 11.4637 33.825 11.19 33.8608 10.8502ZM34.6006 15.8363C34.4784 15.5151 34.4469 14.985 34.4774 14.5818C34.5459 13.6758 34.8706 12.5726 35.3716 12.0731C36.063 11.3838 37.4279 11.4979 38.5167 11.885C38.5503 11.5118 38.6241 11.1789 38.6709 10.8189C36.8854 10.5222 35.1911 10.7068 34.2927 11.6656C33.4131 12.6041 32.8368 14.7613 33.2442 16.1186C33.7212 17.7068 35.8601 17.7931 37.5917 17.1848C37.6683 16.8656 37.7089 16.5097 37.7767 16.1814C36.8303 16.6812 35.0212 16.9411 34.6006 15.8363ZM49.4931 10.8814C48.3213 10.2855 47.3457 11.2855 46.9648 11.8849C47.0733 11.5773 47.0795 11.1654 47.1806 10.85H46.009C45.693 13.0897 45.3123 15.2634 44.8683 17.3727H46.225C46.2335 16.5082 46.4005 15.8687 46.5331 15.021C46.8166 13.2106 47.233 11.2254 49.3083 11.8222C49.3769 11.5161 49.4056 11.1688 49.4931 10.8814ZM14.8984 10.8502C14.8625 10.8554 14.8649 10.8997 14.8675 10.9442C14.5754 13.1662 14.18 15.2834 13.7576 17.3727H15.0834C15.402 15.1357 15.7669 12.946 16.2242 10.85L14.8984 10.8502ZM26.5533 10.7247C25.5953 10.7999 24.7855 11.0802 24.21 11.6969C23.5041 12.4532 22.9326 14.1253 23.1001 15.6482C23.339 17.8207 25.9986 17.7426 28.1258 17.2161C28.1621 16.8348 28.2528 16.5088 28.3108 16.1498C27.4345 16.4834 25.913 16.9488 25.0115 16.3695C24.331 15.9318 24.3271 14.8239 24.549 13.8607C25.9787 13.8145 27.4647 13.8232 28.8964 13.8607C28.9872 13.1781 29.2471 12.4339 29.0198 11.7597C28.72 10.8696 27.6461 10.639 26.5533 10.7247ZM27.8174 13.108H24.7031C24.8018 12.3799 25.4459 11.5795 26.4607 11.5401C27.4159 11.5029 28.0997 11.8967 27.8174 13.108ZM21.5276 10.8502C20.4054 10.4214 19.0379 10.9332 18.4449 11.42C18.447 11.4414 18.4308 11.4444 18.4133 11.4459C18.4233 11.4373 18.4343 11.4286 18.4449 11.42C18.4448 11.4182 18.4446 11.4164 18.4443 11.4146C18.4542 11.2053 18.5266 11.0595 18.5367 10.8502H17.3959C16.9205 14.067 16.3567 17.1938 15.7618 20.2891H17.0876C17.2795 19.0837 17.4062 17.8119 17.6735 16.6829C17.9763 17.8703 19.9534 17.6435 20.7877 17.1847C22.5089 16.2379 23.8366 11.7322 21.5276 10.8502ZM20.4793 16.1498C19.7699 16.9139 18.0261 16.9025 17.8893 15.6167C17.8298 15.0573 18.0346 14.4707 18.1361 13.892C18.2385 13.3062 18.3124 12.7442 18.4134 12.23C19.1121 11.3623 21.1652 11.2574 21.3735 12.7003C21.5541 13.953 21.0666 15.517 20.4793 16.1498ZM54.4263 8.02783C54.3126 9.04114 54.1607 10.0156 53.9639 10.9442C50.7117 9.89712 48.7173 12.3308 48.7532 15.3345C48.7603 15.9155 48.8586 16.4915 49.2156 16.9025C49.8314 17.6104 51.5939 17.78 52.484 17.1846C52.6562 17.0694 52.8323 16.8597 52.9464 16.7143C53.0322 16.6049 53.1684 16.3181 53.1931 16.4007C53.1462 16.7188 53.0763 17.0137 53.07 17.3727H54.2724C54.5043 13.9916 55.2207 11.1038 55.7524 8.02771H54.4264V8.02783H54.4263ZM51.4664 16.6515C50.5739 16.671 50.1301 16.1092 50.1096 15.1777C50.0741 13.5463 50.7777 11.7339 52.2064 11.5714C52.8716 11.4957 53.3532 11.6531 53.8406 11.8223C53.3931 13.6548 53.5546 16.606 51.4664 16.6515ZM40.0273 10.8502C39.962 11.2227 39.8618 11.5599 39.7807 11.9163C40.563 11.7167 42.9992 11.105 43.234 12.1671C43.3119 12.52 43.1775 12.8949 43.0798 13.1707C40.8769 12.9585 39.0814 13.3307 38.609 14.9267C38.2927 15.9958 38.6444 17.0478 39.3182 17.3415C40.6158 17.907 42.1942 17.2592 42.7406 16.3695C42.6839 16.6774 42.6301 16.9888 42.6483 17.3728H43.789C43.8012 16.2616 43.9602 15.3622 44.1282 14.3623C44.2714 13.5108 44.5409 12.6678 44.4982 11.9163C44.4001 10.1952 41.5966 10.804 40.0273 10.8502ZM42.1856 16.1184C41.5024 16.7987 39.5844 16.992 39.7807 15.3658C39.9435 14.0152 41.3895 13.7282 42.9562 13.9232C42.8399 14.662 42.7063 15.6001 42.1856 16.1184Z" fill="#9E9E9E"/>
</g>
<defs>
<clipPath id="clip0_1902_322">
<rect width="61" height="27" fill="white"/>
</clipPath>
</defs>
</svg>
