<svg width="77" height="30" viewBox="0 0 77 30" fill="none" xmlns="http://www.w3.org/2000/svg">
<g clip-path="url(#clip0_1913_251)">
<path d="M0.0158691 30H76.9839V1.01388e-07H0.0158691V30Z" fill="white"/>
<path d="M72.5145 5.23517C72.5145 4.55141 72.0954 3.99207 71.5835 3.99207H5.24907C4.73706 3.99207 4.31812 4.55141 4.31812 5.23517V24.4719C4.31812 25.1558 4.73706 25.715 5.24907 25.715H71.5834C72.0953 25.715 72.5144 25.1558 72.5144 24.4719L72.5145 5.23517Z" fill="#323238"/>
<path d="M65.3374 12.059C65.3397 12.0219 65.3413 11.9838 65.3413 11.9452L65.3415 11.9523C65.3417 11.9883 65.3392 12.0234 65.3374 12.059" fill="#204595"/>
<path d="M21.5066 7.69532C20.3918 6.56694 18.7415 6.30887 16.3105 6.30887H12.8538C8.01441 6.30887 6.47559 7.50754 6.47559 11.6435V13.9H11.1142C11.1142 13.6884 11.0918 13.4769 11.0918 13.2888C11.0918 11.221 11.5825 10.5627 13.523 10.5627H15.7531C17.5371 10.5627 17.8493 11.2677 17.8493 12.9832V23.5826H22.8003V11.3146C22.8002 9.83414 22.2871 8.49413 21.5066 7.69532M41.5024 17.5898C41.5024 18.9525 40.6768 19.5167 38.893 19.5167H34.9231C31.7119 19.5167 30.9313 19.0704 30.9313 16.156V13.7821C30.9313 11.1029 32.024 10.5627 34.9231 10.5627H37.8002C40.5432 10.5627 41.6359 10.8681 41.6359 12.913V13.101H46.6537C46.676 12.6541 46.6983 12.2546 46.6983 11.855C46.6983 9.74013 46.2298 8.32985 45.0703 7.43659C43.8437 6.47338 41.9035 6.28515 39.0713 6.28515H33.5406C30.9757 6.28515 29.1695 6.40254 27.7645 7.55443C26.404 8.68214 25.891 10.2334 25.891 12.5603V17.2136C25.891 22.337 28.0095 23.7942 33.5406 23.7942H39.0713C41.9037 23.7942 43.8215 23.6531 45.0036 22.6896C46.0516 21.8433 46.4976 20.4334 46.4976 18.3888C46.4976 18.0833 46.4976 17.7542 46.4752 17.4252H41.5025V17.5898H41.5024ZM49.8844 6.49666V23.5826H64.4918C68.127 23.5826 69.8888 22.0313 69.8888 18.8116C69.8888 16.9784 69.1307 15.8507 67.5028 15.1921C69.5541 14.8399 70.4467 13.5709 70.4467 11.1265C70.4467 7.8361 68.8409 6.49666 65.2501 6.49666H49.8844V6.49666ZM64.804 18.3418C64.804 19.1877 64.291 19.7513 63.5329 19.7513H54.8353V16.9316H63.5329C64.3581 16.9316 64.804 17.4251 64.804 18.3418ZM65.3391 11.9491C65.3391 12.8657 64.804 13.4533 63.9789 13.4533H54.8353V10.3743H63.9789C64.8485 10.3743 65.3391 10.9386 65.3391 11.9491Z" fill="white"/>
<path d="M6.47559 23.6968H13.2168V16.8853H6.47559V23.6968Z" fill="white"/>
<path d="M11.4016 20.2439C11.4016 20.2439 11.5125 20.2481 11.5437 20.2503C11.5753 20.2525 11.6344 20.2556 11.6704 20.1827C11.6798 20.1639 11.7356 19.9829 11.7428 19.9617C11.7497 19.9401 11.7661 19.8423 11.6927 19.825C11.6791 19.822 11.5487 19.7949 11.5487 19.7949L11.4016 20.2439V20.2439ZM11.1512 21.0755C11.1512 21.0755 11.2948 21.0644 11.3303 21.0614C11.3656 21.058 11.3905 21.0411 11.4047 21.0084C11.4138 20.9881 11.4675 20.8217 11.4738 20.8036C11.4799 20.7856 11.5072 20.6858 11.4275 20.6835C11.4153 20.6831 11.2725 20.6835 11.2725 20.6835L11.1512 21.0755V21.0755ZM10.645 21.5517C10.645 21.5517 11.2483 21.4607 11.3045 21.451C11.5559 21.4087 11.6653 21.195 11.696 21.095C11.7065 21.0623 11.7762 20.8297 11.7851 20.8044C11.8537 20.6085 11.6798 20.5074 11.6798 20.5074C11.6798 20.5074 11.8784 20.4692 11.9457 20.3009C11.9457 20.3009 12.0716 19.9135 12.0841 19.8744C12.0962 19.8349 12.186 19.5257 11.88 19.412C11.8391 19.3968 11.3466 19.2585 11.3466 19.2585L10.645 21.5517V21.5517ZM8.20386 21.9374L9.19257 21.7812L9.35222 21.2139L9.12163 21.2345C9.12163 21.2345 9.68972 19.3156 9.70961 19.256C9.78078 19.0398 9.82412 18.8159 9.51298 18.708C9.47265 18.694 9.18274 18.6059 9.14755 18.5971C8.96802 18.5528 8.73955 18.552 8.65107 18.8462L8.28966 20.0327L8.73374 20.0655C8.73374 20.0655 8.91741 19.4566 8.9316 19.4115C8.97215 19.2841 8.9974 19.2352 9.12364 19.2661C9.21648 19.2888 9.21257 19.3282 9.1881 19.4122C9.17783 19.4478 8.64314 21.2741 8.64314 21.2741L8.39021 21.2942L8.20386 21.9374V21.9374Z" fill="#121212"/>
<path d="M8.20386 21.9374L9.19257 21.7812L9.35222 21.2139L9.12163 21.2345C9.12163 21.2345 9.68972 19.3156 9.70961 19.256C9.78078 19.0398 9.82412 18.8159 9.51298 18.708C9.47265 18.694 9.18274 18.6059 9.14755 18.5971C8.96802 18.5528 8.73955 18.552 8.65107 18.8462L8.28966 20.0327L8.73374 20.0655C8.73374 20.0655 8.91741 19.4566 8.9316 19.4115C8.97215 19.2841 8.9974 19.2352 9.12364 19.2661C9.21648 19.2888 9.21257 19.3282 9.1881 19.4122C9.17783 19.4478 8.64314 21.2741 8.64314 21.2741L8.39021 21.2942L8.20386 21.9374V21.9374Z" stroke="#323238" stroke-width="0.326453" stroke-miterlimit="3.864"/>
<path d="M9.67859 21.7115C9.7216 21.7043 10.0397 21.6511 10.0931 21.6419C10.1469 21.6325 10.4428 21.5816 10.5214 21.2943C10.5405 21.2236 10.6968 20.7182 10.6968 20.7182L10.3212 20.722C10.3212 20.722 10.2514 20.9664 10.2364 21.0084C10.2002 21.1116 10.1981 21.1381 10.0851 21.1558C9.97107 21.1695 9.97699 21.1193 10.0027 21.0344C10.0155 20.9906 10.3573 19.7989 10.3726 19.7479C10.4127 19.6122 10.4228 19.5587 10.5431 19.5833C10.6475 19.6088 10.6276 19.6676 10.6009 19.7674C10.5627 19.8978 10.5239 20.028 10.4846 20.1581L10.8577 20.1872C10.8577 20.1872 11.0476 19.5541 11.0577 19.5246C11.0677 19.4951 11.1471 19.2386 10.9214 19.1283C10.8922 19.1141 10.8922 19.1119 10.8624 19.1014C10.8325 19.0911 10.5305 19.0017 10.5017 18.9934C10.473 18.9856 10.1852 18.8925 10.092 19.1912C10.0827 19.2201 9.47448 21.3199 9.44219 21.423C9.38745 21.5975 9.44566 21.7464 9.67859 21.7115" fill="#323238"/>
<path d="M9.67859 21.7115C9.7216 21.7043 10.0397 21.6511 10.0931 21.6419C10.1469 21.6325 10.4428 21.5816 10.5214 21.2943C10.5405 21.2236 10.6968 20.7182 10.6968 20.7182L10.3212 20.722C10.3212 20.722 10.2514 20.9664 10.2364 21.0084C10.2002 21.1116 10.1981 21.1381 10.0851 21.1558C9.97107 21.1695 9.97699 21.1193 10.0027 21.0344C10.0155 20.9906 10.3573 19.7989 10.3726 19.7479C10.4127 19.6122 10.4228 19.5587 10.5431 19.5833C10.6475 19.6088 10.6276 19.6676 10.6009 19.7674C10.5627 19.8978 10.5239 20.028 10.4846 20.1581L10.8577 20.1872C10.8577 20.1872 11.0476 19.5541 11.0577 19.5246C11.0677 19.4951 11.1471 19.2386 10.9214 19.1283C10.8922 19.1141 10.8922 19.1119 10.8624 19.1014C10.8325 19.0911 10.5305 19.0017 10.5017 18.9934C10.473 18.9856 10.1852 18.8925 10.092 19.1912C10.0827 19.2201 9.47448 21.3199 9.44219 21.423C9.38745 21.5975 9.44566 21.7464 9.67859 21.7115V21.7115Z" stroke="#323238" stroke-width="0.326453" stroke-miterlimit="3.864"/>
<path d="M7.80439 22.2682C7.99007 22.2362 11.2141 21.6832 11.3572 21.6579C11.5004 21.6326 11.7413 21.5968 11.8422 21.2811C11.8618 21.2195 12.2992 19.8401 12.317 19.7805C12.3345 19.7207 12.4616 19.4058 12.1025 19.2882C12.0489 19.2705 9.01811 18.274 8.9446 18.2508C8.8712 18.2271 8.58453 18.101 8.46689 18.5369C8.46689 18.5369 7.54163 21.628 7.49906 21.7678C7.4641 21.8809 7.43952 21.9719 7.43416 22.0426C7.41583 22.2961 7.56509 22.3045 7.68765 22.2869C7.73345 22.2803 7.77468 22.2731 7.80439 22.2682M7.72016 22.4407C7.8016 22.428 11.3214 21.8156 11.4113 21.8005C11.502 21.7846 11.8483 21.7456 11.9868 21.3288C12.0136 21.2486 12.4516 19.8602 12.4726 19.7908C12.5497 19.534 12.5167 19.2657 12.1959 19.1528C12.0898 19.1157 9.0695 18.1049 9.03219 18.0923C8.94918 18.0645 8.50554 17.8571 8.34411 18.3976C8.34411 18.3976 7.36634 21.6383 7.33741 21.7363C7.29216 21.8883 7.2639 22.017 7.26367 22.112C7.26356 22.5333 7.64151 22.4493 7.72016 22.4407Z" fill="#323238"/>
</g>
<defs>
<clipPath id="clip0_1913_251">
<rect width="77" height="30" fill="white" transform="matrix(1 0 0 -1 0 30)"/>
</clipPath>
</defs>
</svg>
