<svg width="51" height="40" viewBox="0 0 51 40" fill="none" xmlns="http://www.w3.org/2000/svg">
<path d="M51 31.5924C51 35.9889 47.4462 39.569 43.0819 39.569H0V7.9766C0 3.58005 3.55379 0 7.91809 0H51V31.5924Z" fill="white"/>
<path d="M36.9312 23.7414H40.2073C40.3009 23.7414 40.5193 23.7093 40.6129 23.7093C41.2369 23.5811 41.7674 23.0041 41.7674 22.2026C41.7674 21.4332 41.2369 20.8562 40.6129 20.6959C40.5193 20.6638 40.3321 20.6638 40.2073 20.6638H36.9312V23.7414Z" fill="url(#paint0_linear_1919_196)"/>
<path d="M40.0273 2.63794C36.8939 2.63794 34.3245 5.18399 34.3245 8.3587V14.2995H42.3774C42.5654 14.2995 42.7847 14.2995 42.9414 14.3309C44.7588 14.4252 46.1061 15.3682 46.1061 17.0027C46.1061 18.2914 45.1974 19.3916 43.5054 19.6116V19.6745C45.3541 19.8002 46.7641 20.8375 46.7641 22.4406C46.7641 24.1694 45.1974 25.3009 43.1294 25.3009H34.2932V36.931H42.6594C45.7928 36.931 48.3622 34.385 48.3622 31.2103V2.63794H40.0273Z" fill="url(#paint1_linear_1919_196)"/>
<path d="M41.3277 17.5862C41.3277 16.8667 40.8014 16.3871 40.1821 16.2972C40.1202 16.2972 39.9654 16.2672 39.8725 16.2672H36.9312V18.9051H39.8725C39.9654 18.9051 40.1512 18.9051 40.1821 18.8752C40.8014 18.7852 41.3277 18.3056 41.3277 17.5862Z" fill="url(#paint2_linear_1919_196)"/>
<path d="M8.37206 2.63794C5.23866 2.63794 2.66927 5.18633 2.66927 8.36394V22.4902C4.26731 23.2767 5.92801 23.7801 7.58871 23.7801C9.56275 23.7801 10.6281 22.5846 10.6281 20.9486V14.2787H15.5162V20.9171C15.5162 23.497 13.9182 25.6049 8.4974 25.6049C5.20733 25.6049 2.63794 24.8813 2.63794 24.8813V36.931H11.0041C14.1375 36.931 16.7069 34.3827 16.7069 31.205V2.63794H8.37206Z" fill="url(#paint3_linear_1919_196)"/>
<path d="M24.1684 2.63794C21.035 2.63794 18.4656 5.18166 18.4656 8.35346V15.8276C19.9069 14.6028 22.4137 13.8177 26.4557 14.0062C28.6178 14.1004 30.9365 14.6971 30.9365 14.6971V17.1152C29.7771 16.5185 28.3985 15.9846 26.6124 15.859C23.5417 15.6392 21.693 17.1466 21.693 19.7845C21.693 22.4538 23.5417 23.9612 26.6124 23.71C28.3985 23.5844 29.7771 23.0191 30.9365 22.4538V24.8719C30.9365 24.8719 28.6491 25.4686 26.4557 25.5628C22.4137 25.7512 19.9069 24.9661 18.4656 23.7414V36.931H26.8318C29.9652 36.931 32.5345 34.3873 32.5345 31.2155V2.63794H24.1684Z" fill="url(#paint4_linear_1919_196)"/>
<defs>
<linearGradient id="paint0_linear_1919_196" x1="34.1489" y1="22.2065" x2="48.1702" y2="22.2065" gradientUnits="userSpaceOnUse">
<stop stop-color="#53555E"/>
<stop offset="0.0001"/>
<stop offset="0.0002"/>
<stop offset="0.0003"/>
<stop offset="0.0004"/>
<stop offset="0.0005"/>
<stop offset="0.0006" stop-color="#53555E"/>
</linearGradient>
<linearGradient id="paint1_linear_1919_196" x1="34.3189" y1="19.7707" x2="48.4007" y2="19.7707" gradientUnits="userSpaceOnUse">
<stop stop-color="#53555E"/>
<stop stop-color="#53555E"/>
<stop stop-color="#4A4A4A" stop-opacity="0.35"/>
<stop offset="0.0001" stop-color="#4B4B50" stop-opacity="0.96952"/>
<stop offset="0.0002" stop-color="#323238"/>
<stop offset="0.0003" stop-color="#53555E"/>
</linearGradient>
<linearGradient id="paint2_linear_1919_196" x1="34.17" y1="17.5823" x2="48.0838" y2="17.5823" gradientUnits="userSpaceOnUse">
<stop/>
<stop/>
<stop stop-color="white"/>
<stop offset="0.0001"/>
<stop offset="0.0002"/>
<stop offset="0.0003"/>
<stop offset="0.0004" stop-color="#323238"/>
<stop offset="0.0005" stop-color="#53555E"/>
</linearGradient>
<linearGradient id="paint3_linear_1919_196" x1="2.66269" y1="19.7864" x2="16.9613" y2="19.7864" gradientUnits="userSpaceOnUse">
<stop stop-color="#EEF0FD"/>
<stop offset="0.0001" stop-color="#53555E"/>
<stop offset="0.0002" stop-color="#53555E"/>
<stop offset="0.0003" stop-color="#53555E"/>
</linearGradient>
<linearGradient id="paint4_linear_1919_196" x1="18.3844" y1="19.755" x2="32.272" y2="19.755" gradientUnits="userSpaceOnUse">
<stop stop-color="#121212"/>
<stop offset="0.0001" stop-color="#53555E"/>
<stop offset="0.0002" stop-color="#E3E9FF"/>
<stop offset="0.0003" stop-color="#121214"/>
<stop offset="0.0004" stop-color="#424242"/>
</linearGradient>
</defs>
</svg>

