<svg width="65" height="39" viewBox="0 0 65 39" fill="none" xmlns="http://www.w3.org/2000/svg">
<path fill-rule="evenodd" clip-rule="evenodd" d="M32.6503 33.9527C34.6593 32.1199 36.2631 29.8875 37.3588 27.3986C38.4545 24.9097 39.018 22.2192 39.0131 19.4998C39.0181 16.7804 38.4546 14.0899 37.3589 11.601C36.2632 9.11211 34.6594 6.87968 32.6503 5.04692C29.2149 1.91101 24.6577 0 19.6567 0C8.96707 0 0.300781 8.73026 0.300781 19.4998C0.300781 30.2691 8.96707 38.9997 19.6567 38.9997C24.6577 38.9997 29.2153 37.0886 32.6503 33.9527Z" fill="#1E1E1E"/>
<path fill-rule="evenodd" clip-rule="evenodd" d="M45.6441 0C40.6431 0 36.0852 1.91101 32.6505 5.04692C31.9501 5.68695 31.2969 6.37695 30.6963 7.11147H34.6034C35.1398 7.76708 35.633 8.45683 36.08 9.17637H29.2207C28.8077 9.84175 28.4351 10.5313 28.1047 11.2413H37.1943C37.5071 11.9133 37.7814 12.6026 38.0156 13.3058H27.2851C27.0601 13.9832 26.8725 14.6724 26.7231 15.3704H38.5779C38.8681 16.7277 39.0142 18.1118 39.0136 19.4998C39.0136 21.6647 38.6623 23.7476 38.0159 25.6935H27.2851C27.5185 26.3969 27.7922 27.0864 28.1047 27.7584H37.1943C36.8645 28.4684 36.4923 29.158 36.0797 29.8233H29.2207C29.6672 30.5428 30.16 31.2325 30.6959 31.8882H34.6034C34.0035 32.623 33.3508 33.3132 32.6505 33.9531C36.0852 37.089 40.6431 39 45.6441 39C56.3334 39 65 30.2694 65 19.5002C65 8.73026 56.3334 0 45.6441 0Z" fill="#53555E"/>
<path fill-rule="evenodd" clip-rule="evenodd" d="M62.4229 30.3697C62.4229 30.0218 62.7026 29.7396 63.0484 29.7396C63.3936 29.7396 63.6733 30.0218 63.6733 30.3697C63.6733 30.7169 63.3936 30.9991 63.0484 30.9991C62.882 30.9986 62.7227 30.932 62.6053 30.8139C62.488 30.6959 62.4224 30.5361 62.4229 30.3697V30.3697ZM63.0481 30.8476C63.3102 30.8476 63.5229 30.6343 63.5229 30.3694C63.5229 30.1045 63.3102 29.8904 63.0481 29.8904C62.7853 29.8904 62.5726 30.1045 62.5726 30.3694C62.5726 30.6343 62.7856 30.8476 63.0481 30.8476ZM62.9637 30.6457H62.8354V30.0917H63.0678C63.1159 30.0917 63.165 30.0931 63.2075 30.12C63.2296 30.1356 63.2475 30.1564 63.2598 30.1805C63.272 30.2046 63.2782 30.2313 63.2777 30.2584C63.2777 30.3206 63.2414 30.3794 63.1826 30.4015L63.284 30.6453H63.1415L63.0578 30.4264H62.9641V30.6457V30.3324H63.035C63.0606 30.3324 63.0896 30.3337 63.1128 30.3209C63.1231 30.3139 63.1314 30.3044 63.1371 30.2933C63.1428 30.2821 63.1456 30.2698 63.1453 30.2573C63.1449 30.2462 63.1418 30.2353 63.1364 30.2256C63.131 30.2159 63.1234 30.2075 63.1142 30.2013C63.092 30.1878 63.0561 30.1913 63.0318 30.1913H62.9644V30.6457H62.9637Z" fill="#53555E"/>
<path fill-rule="evenodd" clip-rule="evenodd" d="M58.3295 23.7261C58.3295 23.3782 58.6093 23.096 58.9544 23.096C59.2995 23.096 59.5793 23.3782 59.5793 23.7261C59.5793 24.074 59.2995 24.3555 58.9544 24.3555C58.6093 24.3555 58.3295 24.0736 58.3295 23.7261ZM58.9541 24.204C59.2162 24.204 59.4289 23.9899 59.4289 23.7257C59.4289 23.4608 59.2162 23.2468 58.9541 23.2468C58.6912 23.2468 58.4793 23.4608 58.4793 23.7257C58.4793 23.9899 58.6916 24.204 58.9541 24.204ZM58.8697 24.002H58.7414V23.4487H58.9738C59.0219 23.4487 59.0716 23.4494 59.1135 23.4771C59.1356 23.4925 59.1535 23.5131 59.1657 23.5371C59.178 23.5611 59.1841 23.5878 59.1837 23.6147C59.1837 23.6776 59.1477 23.7357 59.0886 23.7579L59.1899 24.0017H59.0481L58.9638 23.7828H58.87V24.002V23.6887H58.9409C58.9672 23.6887 58.9963 23.6908 59.0187 23.678C59.0289 23.6708 59.0372 23.6613 59.0428 23.6502C59.0485 23.6391 59.0514 23.6268 59.0512 23.6144C59.051 23.6031 59.0481 23.5921 59.0426 23.5822C59.0372 23.5723 59.0295 23.5639 59.0201 23.5576C58.998 23.5449 58.962 23.5476 58.9385 23.5476H58.8704V24.002H58.8697ZM17.239 24.3555H14.83L16.2617 16.7557L12.9654 24.3555H10.7687L10.3672 16.7993L8.93101 24.3555H6.74438L8.61286 14.4695H12.3719L12.5708 20.5898L15.2212 14.4695H19.1383L17.239 24.3555V24.3555ZM44.1616 24.2569C43.5024 24.4391 42.9872 24.5176 42.4304 24.5176C41.1979 24.5176 40.5249 23.8948 40.5249 22.7522C40.5249 22.5261 40.5498 22.2854 40.5958 22.0308L40.7424 21.2448L40.8552 20.6085L41.9718 14.4691H44.3677L44.0205 16.3155H45.2499L44.9196 18.27H43.685L43.0501 21.6245C43.0266 21.7341 43.0128 21.8455 43.0089 21.9575C43.0089 22.3729 43.2583 22.5534 43.831 22.5534C44.1052 22.5534 44.3179 22.5285 44.4808 22.4783L44.1616 24.2569ZM51.1976 16.3815C50.9957 16.3013 50.9483 16.3013 50.9248 16.2947C50.7972 16.2663 50.7291 16.2497 50.7173 16.2477C50.6373 16.2337 50.5561 16.227 50.4749 16.2276C49.684 16.2276 49.1137 16.5824 48.3764 17.5331L48.5891 16.3148H46.4073L44.939 24.3551H47.3497C48.2122 19.4379 48.5815 18.5768 49.7379 18.5768C49.8251 18.5768 49.9257 18.5837 50.0426 18.5972L50.3241 18.6549L51.1976 16.3815V16.3815ZM34.6117 18.8555C34.6117 19.8712 35.1799 20.5708 36.4677 21.0964C37.4547 21.5004 37.6072 21.6186 37.6072 21.9838C37.6072 22.4842 37.1722 22.71 36.2084 22.71C35.4808 22.71 34.8047 22.6115 34.0242 22.3919L33.6897 24.2465L33.7976 24.2649L34.2441 24.3472C34.388 24.3721 34.5999 24.3959 34.8811 24.4174C35.4607 24.4627 35.9092 24.4841 36.2253 24.4841C38.7968 24.4841 39.9847 23.6351 39.9847 21.8012C39.9847 20.6977 39.4881 20.0507 38.267 19.5634C37.2451 19.1564 37.1269 19.0661 37.1269 18.6909C37.1269 18.2576 37.5322 18.0349 38.3196 18.0349C38.7986 18.0349 39.4515 18.0802 40.0708 18.1556L40.418 16.2944C39.7873 16.2079 38.83 16.137 38.2736 16.137C35.5472 16.1374 34.6034 17.3726 34.6117 18.8555V18.8555ZM25.0705 24.3555H23.0685L23.1152 23.522C22.5055 24.1819 21.6929 24.4945 20.5883 24.4945C19.2828 24.4945 18.3868 23.5988 18.3868 22.2985C18.3868 20.3398 19.9433 19.1982 22.6186 19.1982C22.8929 19.1982 23.2411 19.22 23.6001 19.2601C23.6748 18.9959 23.6952 18.8818 23.6952 18.7379C23.6952 18.2057 23.275 18.0065 22.15 18.0065C21.4622 18.0065 20.6848 18.0937 20.1481 18.2306L19.8144 18.316L19.5982 18.3679L19.9323 16.5603C21.1333 16.2504 21.9259 16.1332 22.8164 16.1332C24.8869 16.1332 25.981 16.95 25.981 18.4917C25.981 18.8884 25.9447 19.1896 25.7853 20.0846L25.2818 22.9369L25.1971 23.4487L25.1355 23.8575L25.0944 24.1372L25.0705 24.3555V24.3555ZM23.313 20.7734C23.1344 20.7512 22.9546 20.7401 22.7746 20.7402C21.4093 20.7402 20.7176 21.1514 20.7176 21.9634C20.7176 22.4638 21.0552 22.7834 21.5819 22.7834C22.564 22.7837 23.2715 21.9624 23.313 20.7734ZM32.9735 24.1819C32.169 24.4002 31.3388 24.5099 30.5051 24.508C27.8118 24.5059 26.4081 23.2706 26.4081 20.9059C26.4081 18.1459 28.194 16.1138 30.6182 16.1138C32.6014 16.1138 33.8678 17.2519 33.8678 19.0364C33.8678 19.6288 33.7814 20.2063 33.5722 21.0214H28.7822C28.7675 21.1048 28.7598 21.1892 28.759 21.2738C28.759 22.2058 29.4731 22.6813 30.8723 22.6813C31.7327 22.6813 32.5105 22.524 33.374 22.1726L32.9735 24.1819ZM31.6906 19.3978C31.7037 19.2304 31.7106 19.0934 31.7106 18.9876C31.7106 18.3347 31.2884 17.9515 30.5711 17.9515C29.8048 17.9515 29.2567 18.4654 29.0343 19.3929L31.6906 19.3978ZM58.6861 20.7102C58.3254 23.3847 56.4714 24.5709 54.0067 24.5709C51.2813 24.5709 50.1806 22.9054 50.1806 20.8647C50.1806 18.0152 52.0449 16.0844 54.9242 16.0844C57.4235 16.0844 58.7504 17.6721 58.7504 19.7132C58.7504 20.2098 58.7497 20.2426 58.6861 20.7102ZM56.2051 19.6813C56.2051 18.8403 55.8662 18.0463 54.8786 18.0463C53.6492 18.0463 52.8873 19.5102 52.8873 20.8025C52.8873 21.8925 53.4095 22.625 54.2706 22.6094C54.7928 22.6094 55.9063 21.8929 56.1266 20.6413C56.1782 20.3495 56.2051 20.0292 56.2051 19.6813V19.6813Z" fill="white"/>
</svg>
